<svg width="28" height="28" viewBox="0 0 28 28" fill="none" xmlns="http://www.w3.org/2000/svg">
<path d="M14.0594 1.38112C20.0844 1.38112 25.1274 5.66313 26.3084 11.3421H27.6344C26.4414 4.93113 20.8174 0.078125 14.0594 0.078125C7.30137 0.078125 1.67737 4.93113 0.484375 11.3421H1.81037C2.99137 5.66313 8.03437 1.38112 14.0594 1.38112Z" fill="#ECECEC"/>
<path d="M14.0589 26.3977C8.07491 26.3977 3.05891 22.1757 1.83591 16.5547H0.503906C1.74491 22.9077 7.34291 27.7007 14.0589 27.7007C20.7749 27.7007 26.3729 22.9077 27.6129 16.5547H26.2819C25.0589 22.1757 20.0429 26.3977 14.0589 26.3977Z" fill="#ECECEC"/>
<g opacity="0.5">
<path d="M8.67754 5.17059C12.7825 2.46859 18.1385 3.12359 21.4895 6.46359L22.3925 5.86859C18.7045 2.03559 12.6965 1.25259 8.09354 4.28259C3.48954 7.31359 1.83454 13.1416 3.89654 18.0446L4.79954 17.4496C3.05754 13.0516 4.57254 7.87259 8.67754 5.17059Z" fill="#ECECEC"/>
</g>
<g opacity="0.5">
<path d="M19.8951 22.2147C15.8191 24.8987 10.5071 24.2717 7.15409 20.9907L6.24609 21.5877C9.94109 25.3597 15.9041 26.1147 20.4791 23.1027C25.0551 20.0907 26.7191 14.3147 24.7151 9.42969L23.8071 10.0277C25.4961 14.4047 23.9711 19.5317 19.8951 22.2147Z" fill="#ECECEC"/>
</g>
</svg>