<svg width="22" height="21" viewBox="0 0 22 21" fill="none" xmlns="http://www.w3.org/2000/svg">
<path d="M21.8582 14.6681H11.7363V0.496094H21.8582V14.6681Z" fill="#ECECEC"/>
<path d="M21.3008 1.03906H0.714844V20.5231H21.3008V1.03906Z" fill="#191D22"/>
<path d="M12.6259 5.78643V6.41243C12.6259 6.41843 12.5749 6.47043 12.5599 6.47743C12.4949 6.50843 11.7939 6.50943 11.6889 6.49243C11.6289 6.48343 11.5799 6.45843 11.5389 6.41243V5.78643C11.4539 5.69143 11.3409 5.72643 11.2319 5.74143C10.7349 5.81243 10.1409 6.04743 9.70486 6.29143C9.59386 6.35343 9.14686 6.61243 9.13286 6.71043C9.10386 6.91243 9.60486 7.14643 9.55786 7.32743C9.54586 7.37343 8.94486 7.97543 8.90286 7.99443C8.87786 8.00543 8.85686 8.01543 8.82886 8.00543C8.64586 7.96343 8.40886 7.47743 8.21186 7.59843C8.15586 7.63243 7.89386 8.06243 7.84386 8.15243C7.54486 8.68543 7.31286 9.31743 7.28886 9.93043C7.29486 9.95243 7.36286 9.98643 7.37186 9.98643H7.96486C7.98986 9.98643 8.03986 10.0664 8.04686 10.1024C8.06386 10.1944 8.05686 10.9494 8.02986 11.0064C8.02286 11.0224 7.97086 11.0734 7.96486 11.0734H7.37186C7.36286 11.0734 7.29486 11.1064 7.28886 11.1284C7.31086 11.7264 7.54486 12.3624 7.83286 12.8854C7.88386 12.9784 8.15386 13.4254 8.21186 13.4614C8.40886 13.5824 8.64586 13.0954 8.82886 13.0534C8.85686 13.0444 8.87786 13.0534 8.90286 13.0644C8.94486 13.0844 9.54586 13.6864 9.55786 13.7314C9.60486 13.9124 9.09986 14.1514 9.13186 14.3494C9.14786 14.4454 9.67586 14.7504 9.79286 14.8124C10.3019 15.0834 10.9039 15.3004 11.4829 15.3234C11.5049 15.3164 11.5389 15.2494 11.5389 15.2404V14.6474C11.5389 14.6224 11.6189 14.5724 11.6549 14.5654C11.7469 14.5484 12.5019 14.5544 12.5599 14.5814C12.5749 14.5894 12.6259 14.6414 12.6259 14.6474V15.2404C12.6259 15.2534 12.6899 15.3074 12.7149 15.3154C13.0319 15.4124 14.1219 14.9524 14.4379 14.7794C14.5529 14.7164 15.0169 14.4484 15.0319 14.3484C15.0589 14.1634 14.6599 13.9684 14.6059 13.7834C14.5969 13.7554 14.6069 13.7344 14.6179 13.7094C14.6359 13.6694 15.2029 13.1044 15.2429 13.0804C15.4739 12.9444 15.6749 13.5174 15.9019 13.4794C15.9849 13.4664 16.2419 13.0504 16.2989 12.9514C16.5379 12.5364 16.8129 11.8554 16.8699 11.3804C16.8759 11.3294 16.9199 11.0734 16.8259 11.0734H16.1999C16.1939 11.0734 16.1419 11.0224 16.1339 11.0064C16.1049 10.9424 16.1029 10.1154 16.1339 10.0514C16.2089 9.89643 16.7869 10.0694 16.8779 9.93043C16.9689 9.79143 16.6449 8.83343 16.5609 8.63643C16.4919 8.47343 16.0509 7.62443 15.9299 7.58643C15.7239 7.52343 15.5309 7.94943 15.3359 8.00543C15.3079 8.01543 15.2869 8.00543 15.2619 7.99443C15.2049 7.96843 14.6139 7.34843 14.6089 7.29643C14.6339 7.09243 15.0639 6.90143 15.0319 6.70943C15.0179 6.61943 14.5659 6.35143 14.4599 6.29143C14.0269 6.04843 13.4259 5.80643 12.9329 5.74243C12.8229 5.72843 12.7129 5.68943 12.6259 5.78643ZM11.7629 4.72543C16.4499 4.44843 19.5109 9.66543 16.9879 13.6394C14.7259 17.2004 9.48086 17.2344 7.20286 13.6794C4.79086 9.91543 7.32986 4.98743 11.7629 4.72543Z" fill="#ECECEC"/>
<path d="M12.581 11.0298C12.339 11.2698 11.944 11.2928 11.67 11.0918C11.411 10.9028 11.36 10.6208 11.391 10.3178L9.56303 8.35681C9.31703 8.07581 9.63403 7.77381 9.90803 8.01181L11.87 9.84081C11.993 9.84481 12.066 9.81581 12.199 9.83781C12.753 9.92681 12.984 10.6298 12.581 11.0298Z" fill="#ECECEC"/>
<path d="M7.84903 4.64959L7.75003 6.13159L6.26803 6.23059C6.29603 6.05559 6.70603 5.86459 6.65903 5.69459C6.61303 5.53059 5.80303 4.92659 5.70703 4.69859L6.34603 4.05859L7.34503 5.04159C7.45003 5.08259 7.79103 4.58359 7.84903 4.64959Z" fill="#ECECEC"/>
<path d="M2.6577 3.46964C2.54103 3.46964 2.44057 3.44322 2.35634 3.39038C2.27262 3.33701 2.20827 3.2635 2.16327 3.16985C2.11828 3.07619 2.09578 2.96894 2.09578 2.84808C2.09578 2.72565 2.1188 2.61761 2.16484 2.52396C2.21089 2.42978 2.27576 2.35627 2.35947 2.30343C2.44319 2.25058 2.54181 2.22416 2.65534 2.22416C2.7469 2.22416 2.82852 2.24117 2.9002 2.27517C2.97188 2.30866 3.02969 2.35575 3.07364 2.41644C3.11812 2.47713 3.14454 2.54802 3.15291 2.62912H2.92453C2.91197 2.57261 2.8832 2.52396 2.8382 2.48315C2.79373 2.44234 2.73409 2.42193 2.65927 2.42193C2.59387 2.42193 2.53658 2.4392 2.4874 2.47373C2.43874 2.50774 2.40081 2.55639 2.3736 2.6197C2.34639 2.68249 2.33279 2.75678 2.33279 2.84259C2.33279 2.93048 2.34613 3.00635 2.37282 3.07018C2.3995 3.13401 2.43717 3.18345 2.48583 3.2185C2.53501 3.25356 2.59282 3.27109 2.65927 3.27109C2.70374 3.27109 2.74403 3.26298 2.78013 3.24676C2.81675 3.23002 2.84736 3.20621 2.87195 3.17534C2.89706 3.14447 2.91459 3.10732 2.92453 3.0639H3.15291C3.14454 3.14186 3.11916 3.21144 3.07678 3.27266C3.0344 3.33387 2.97764 3.38201 2.90648 3.41706C2.83585 3.45211 2.75292 3.46964 2.6577 3.46964ZM3.40385 3.44531V2.23986H3.63066V2.43135H3.64321C3.66519 2.36647 3.7039 2.31546 3.75936 2.27831C3.81535 2.24064 3.87865 2.22181 3.94929 2.22181C3.96393 2.22181 3.9812 2.22233 4.00108 2.22338C4.02149 2.22442 4.03744 2.22573 4.04896 2.2273V2.45175C4.03954 2.44914 4.0228 2.44626 3.99873 2.44312C3.97466 2.43946 3.95059 2.43763 3.92653 2.43763C3.87107 2.43763 3.82162 2.4494 3.7782 2.47294C3.7353 2.49596 3.70129 2.52814 3.67617 2.56947C3.65106 2.61028 3.6385 2.65685 3.6385 2.70917V3.44531H3.40385ZM5.01563 2.94539V2.23986H5.25107V3.44531H5.02034V3.23656H5.00779C4.98006 3.30091 4.93558 3.35454 4.87437 3.39744C4.81368 3.43982 4.73808 3.46101 4.64756 3.46101C4.57013 3.46101 4.50159 3.444 4.44194 3.41C4.38282 3.37547 4.33626 3.32445 4.30225 3.25696C4.26876 3.18947 4.25202 3.10602 4.25202 3.00661V2.23986H4.48668V2.97836C4.48668 3.0605 4.50944 3.1259 4.55496 3.17456C4.60047 3.22321 4.6596 3.24754 4.73232 3.24754C4.77627 3.24754 4.81996 3.23656 4.86338 3.21458C4.90733 3.19261 4.94369 3.15938 4.97247 3.11491C5.00177 3.07044 5.01616 3.01393 5.01563 2.94539ZM5.56637 3.44531V2.23986H5.80102V3.44531H5.56637ZM5.68487 2.05386C5.64406 2.05386 5.60901 2.04026 5.57971 2.01305C5.55093 1.98532 5.53655 1.95236 5.53655 1.91417C5.53655 1.87545 5.55093 1.84249 5.57971 1.81528C5.60901 1.78755 5.64406 1.77369 5.68487 1.77369C5.72568 1.77369 5.76048 1.78755 5.78925 1.81528C5.81855 1.84249 5.8332 1.87545 5.8332 1.91417C5.8332 1.95236 5.81855 1.98532 5.78925 2.01305C5.76048 2.04026 5.72568 2.05386 5.68487 2.05386ZM7.02002 2.53416L6.80733 2.57183C6.79844 2.54462 6.78431 2.51872 6.76496 2.49413C6.74612 2.46954 6.72048 2.4494 6.68805 2.4337C6.65561 2.41801 6.61506 2.41016 6.5664 2.41016C6.49995 2.41016 6.4445 2.42507 6.40002 2.45489C6.35555 2.48419 6.33331 2.52212 6.33331 2.56869C6.33331 2.60898 6.34823 2.64141 6.37805 2.666C6.40787 2.6906 6.45601 2.71074 6.52245 2.72643L6.71394 2.77038C6.82486 2.79602 6.90753 2.83552 6.96194 2.88889C7.01635 2.94225 7.04356 3.01158 7.04356 3.09686C7.04356 3.16906 7.02263 3.23342 6.98078 3.28992C6.93944 3.3459 6.88163 3.38985 6.80733 3.42177C6.73356 3.45368 6.64802 3.46964 6.5507 3.46964C6.41572 3.46964 6.30559 3.44087 6.2203 3.38331C6.13502 3.32524 6.0827 3.24283 6.06334 3.1361L6.29015 3.10157C6.30428 3.16069 6.33331 3.20542 6.37726 3.23577C6.42121 3.26559 6.4785 3.2805 6.54914 3.2805C6.62605 3.2805 6.68752 3.26455 6.73356 3.23263C6.77961 3.20019 6.80263 3.16069 6.80263 3.11413C6.80263 3.07646 6.7885 3.0448 6.76025 3.01917C6.73252 2.99353 6.68988 2.97417 6.63232 2.96109L6.42828 2.91636C6.31579 2.89072 6.2326 2.84991 6.17871 2.79393C6.12534 2.73795 6.09866 2.66705 6.09866 2.58125C6.09866 2.51009 6.11854 2.44783 6.1583 2.39446C6.19807 2.3411 6.253 2.2995 6.32311 2.26968C6.39322 2.23933 6.47353 2.22416 6.56405 2.22416C6.69432 2.22416 6.79687 2.25241 6.87169 2.30892C6.94651 2.3649 6.99595 2.43998 7.02002 2.53416ZM7.8211 3.46964C7.70234 3.46964 7.60005 3.44427 7.51424 3.39352C7.42896 3.34224 7.36304 3.2703 7.31647 3.1777C7.27043 3.08457 7.24741 2.97548 7.24741 2.85043C7.24741 2.72696 7.27043 2.61813 7.31647 2.52396C7.36304 2.42978 7.42792 2.35627 7.51111 2.30343C7.59482 2.25058 7.69266 2.22416 7.80462 2.22416C7.87264 2.22416 7.93856 2.23541 8.00239 2.25791C8.06622 2.28041 8.12351 2.31572 8.17426 2.36386C8.22501 2.41199 8.26504 2.47451 8.29434 2.55142C8.32364 2.62781 8.33829 2.72068 8.33829 2.83003V2.91322H7.38004V2.73742H8.10834C8.10834 2.67568 8.09578 2.62101 8.07067 2.5734C8.04555 2.52526 8.01024 2.48733 7.96472 2.4596C7.91973 2.43187 7.86688 2.41801 7.80619 2.41801C7.74027 2.41801 7.68272 2.43423 7.63353 2.46667C7.58488 2.49858 7.54721 2.54044 7.52052 2.59223C7.49436 2.64351 7.48128 2.69923 7.48128 2.7594V2.89674C7.48128 2.97731 7.49541 3.04585 7.52366 3.10235C7.55244 3.15886 7.59246 3.20202 7.64374 3.23185C7.69501 3.26115 7.75492 3.2758 7.82346 3.2758C7.86793 3.2758 7.90848 3.26952 7.9451 3.25696C7.98172 3.24388 8.01338 3.22452 8.04006 3.19888C8.06674 3.17325 8.08715 3.14159 8.10128 3.10392L8.32337 3.14395C8.30559 3.20935 8.27367 3.26664 8.22763 3.31582C8.18211 3.36448 8.12482 3.40241 8.05576 3.42962C7.98722 3.4563 7.909 3.46964 7.8211 3.46964ZM9.69128 3.46964C9.57461 3.46964 9.47415 3.44322 9.38992 3.39038C9.30621 3.33701 9.24185 3.2635 9.19686 3.16985C9.15186 3.07619 9.12937 2.96894 9.12937 2.84808C9.12937 2.72565 9.15239 2.61761 9.19843 2.52396C9.24447 2.42978 9.30935 2.35627 9.39306 2.30343C9.47677 2.25058 9.57539 2.22416 9.68893 2.22416C9.78049 2.22416 9.86211 2.24117 9.93379 2.27517C10.0055 2.30866 10.0633 2.35575 10.1072 2.41644C10.1517 2.47713 10.1781 2.54802 10.1865 2.62912H9.95812C9.94556 2.57261 9.91678 2.52396 9.87179 2.48315C9.82732 2.44234 9.76767 2.42193 9.69285 2.42193C9.62745 2.42193 9.57016 2.4392 9.52098 2.47373C9.47232 2.50774 9.43439 2.55639 9.40718 2.6197C9.37998 2.68249 9.36638 2.75678 9.36638 2.84259C9.36638 2.93048 9.37972 3.00635 9.4064 3.07018C9.43308 3.13401 9.47075 3.18345 9.51941 3.2185C9.56859 3.25356 9.62641 3.27109 9.69285 3.27109C9.73732 3.27109 9.77761 3.26298 9.81371 3.24676C9.85034 3.23002 9.88094 3.20621 9.90553 3.17534C9.93065 3.14447 9.94817 3.10732 9.95812 3.0639H10.1865C10.1781 3.14186 10.1527 3.21144 10.1104 3.27266C10.068 3.33387 10.0112 3.38201 9.94006 3.41706C9.86943 3.45211 9.78651 3.46964 9.69128 3.46964ZM10.9452 3.46964C10.8322 3.46964 10.7336 3.44374 10.6493 3.39195C10.5651 3.34015 10.4997 3.26769 10.4531 3.17456C10.4066 3.08143 10.3833 2.9726 10.3833 2.84808C10.3833 2.72303 10.4066 2.61368 10.4531 2.52003C10.4997 2.42638 10.5651 2.35365 10.6493 2.30186C10.7336 2.25006 10.8322 2.22416 10.9452 2.22416C11.0582 2.22416 11.1568 2.25006 11.2411 2.30186C11.3253 2.35365 11.3907 2.42638 11.4373 2.52003C11.4838 2.61368 11.5071 2.72303 11.5071 2.84808C11.5071 2.9726 11.4838 3.08143 11.4373 3.17456C11.3907 3.26769 11.3253 3.34015 11.2411 3.39195C11.1568 3.44374 11.0582 3.46964 10.9452 3.46964ZM10.946 3.27266C11.0192 3.27266 11.0799 3.2533 11.1281 3.21458C11.1762 3.17586 11.2118 3.12433 11.2348 3.05998C11.2583 2.99562 11.2701 2.92473 11.2701 2.84729C11.2701 2.77038 11.2583 2.69975 11.2348 2.6354C11.2118 2.57052 11.1762 2.51846 11.1281 2.47922C11.0799 2.43998 11.0192 2.42036 10.946 2.42036C10.8722 2.42036 10.811 2.43998 10.7623 2.47922C10.7142 2.51846 10.6784 2.57052 10.6548 2.6354C10.6318 2.69975 10.6203 2.77038 10.6203 2.84729C10.6203 2.92473 10.6318 2.99562 10.6548 3.05998C10.6784 3.12433 10.7142 3.17586 10.7623 3.21458C10.811 3.2533 10.8722 3.27266 10.946 3.27266ZM12.0037 2.72957V3.44531H11.769V2.23986H11.9943V2.43606H12.0092C12.0369 2.37223 12.0803 2.32095 12.1395 2.28224C12.1991 2.24352 12.2742 2.22416 12.3647 2.22416C12.4469 2.22416 12.5188 2.24143 12.5805 2.27596C12.6423 2.30997 12.6901 2.36072 12.7241 2.42821C12.7582 2.4957 12.7752 2.57915 12.7752 2.67856V3.44531H12.5405V2.70681C12.5405 2.61944 12.5177 2.55116 12.4722 2.50198C12.4267 2.45228 12.3642 2.42743 12.2847 2.42743C12.2302 2.42743 12.1818 2.4392 12.1395 2.46274C12.0976 2.48629 12.0644 2.52082 12.0398 2.56634C12.0157 2.61133 12.0037 2.66574 12.0037 2.72957ZM13.6526 2.23986V2.42821H12.9941V2.23986H13.6526ZM13.1707 1.95105H13.4054V3.09137C13.4054 3.13689 13.4122 3.17116 13.4258 3.19418C13.4394 3.21667 13.4569 3.23211 13.4783 3.24048C13.5003 3.24833 13.5241 3.25225 13.5498 3.25225C13.5686 3.25225 13.5851 3.25094 13.5992 3.24833C13.6133 3.24571 13.6243 3.24362 13.6322 3.24205L13.6745 3.43589C13.6609 3.44113 13.6416 3.44636 13.6165 3.45159C13.5914 3.45735 13.56 3.46049 13.5223 3.46101C13.4606 3.46205 13.403 3.45107 13.3496 3.42805C13.2963 3.40503 13.2531 3.36945 13.2201 3.32131C13.1872 3.27318 13.1707 3.21275 13.1707 3.14002V1.95105ZM13.9121 3.44531V2.23986H14.1389V2.43135H14.1515C14.1735 2.36647 14.2122 2.31546 14.2677 2.27831C14.3236 2.24064 14.3869 2.22181 14.4576 2.22181C14.4722 2.22181 14.4895 2.22233 14.5094 2.22338C14.5298 2.22442 14.5457 2.22573 14.5572 2.2273V2.45175C14.5478 2.44914 14.5311 2.44626 14.507 2.44312C14.483 2.43946 14.4589 2.43763 14.4348 2.43763C14.3794 2.43763 14.3299 2.4494 14.2865 2.47294C14.2436 2.49596 14.2096 2.52814 14.1845 2.56947C14.1594 2.61028 14.1468 2.65685 14.1468 2.70917V3.44531H13.9121ZM15.2249 3.46964C15.1119 3.46964 15.0133 3.44374 14.929 3.39195C14.8448 3.34015 14.7794 3.26769 14.7328 3.17456C14.6863 3.08143 14.663 2.9726 14.663 2.84808C14.663 2.72303 14.6863 2.61368 14.7328 2.52003C14.7794 2.42638 14.8448 2.35365 14.929 2.30186C15.0133 2.25006 15.1119 2.22416 15.2249 2.22416C15.3379 2.22416 15.4366 2.25006 15.5208 2.30186C15.605 2.35365 15.6704 2.42638 15.717 2.52003C15.7636 2.61368 15.7868 2.72303 15.7868 2.84808C15.7868 2.9726 15.7636 3.08143 15.717 3.17456C15.6704 3.26769 15.605 3.34015 15.5208 3.39195C15.4366 3.44374 15.3379 3.46964 15.2249 3.46964ZM15.2257 3.27266C15.2989 3.27266 15.3596 3.2533 15.4078 3.21458C15.4559 3.17586 15.4915 3.12433 15.5145 3.05998C15.5381 2.99562 15.5498 2.92473 15.5498 2.84729C15.5498 2.77038 15.5381 2.69975 15.5145 2.6354C15.4915 2.57052 15.4559 2.51846 15.4078 2.47922C15.3596 2.43998 15.2989 2.42036 15.2257 2.42036C15.1519 2.42036 15.0907 2.43998 15.0421 2.47922C14.9939 2.51846 14.9581 2.57052 14.9345 2.6354C14.9115 2.69975 14.9 2.77038 14.9 2.84729C14.9 2.92473 14.9115 2.99562 14.9345 3.05998C14.9581 3.12433 14.9939 3.17586 15.0421 3.21458C15.0907 3.2533 15.1519 3.27266 15.2257 3.27266ZM16.3686 1.48895V3.44531H16.083V1.48895H16.3686Z" fill="#ECECEC"/>
</svg>
