<svg width="17" height="22" viewBox="0 0 17 22" fill="none" xmlns="http://www.w3.org/2000/svg">
<path d="M14.8239 4.80864V9.71403H13.7471V2.00344C13.7471 1.78269 13.662 1.57097 13.5104 1.41488C13.3589 1.25878 13.1534 1.17109 12.9391 1.17109H12.3789C12.1646 1.17109 11.9591 1.25878 11.8076 1.41488C11.6561 1.57097 11.571 1.78269 11.571 2.00344V9.71403H10.4991V0.832355C10.4991 0.611601 10.414 0.399888 10.2625 0.243791C10.1109 0.0876942 9.90541 0 9.69113 0H9.13093C8.91664 0 8.71113 0.0876942 8.55961 0.243791C8.40808 0.399888 8.32296 0.611601 8.32296 0.832355V9.71403H7.2486V2.30817C7.2486 2.08743 7.16349 1.87573 7.01199 1.71964C6.86048 1.56354 6.655 1.47584 6.44072 1.47581H5.88048C5.66619 1.47581 5.46068 1.56351 5.30916 1.7196C5.15763 1.8757 5.07251 2.08741 5.07251 2.30817V15.1449L2.05699 12.657C1.84841 12.485 1.58636 12.3967 1.31941 12.4085C1.05246 12.4203 0.798725 12.5314 0.605233 12.7213L0.342347 12.9796C0.141259 13.1771 0.01981 13.4454 0.0022178 13.731C-0.0153744 14.0166 0.0721827 14.2986 0.24743 14.5206L5.07307 20.633C5.39082 21.0584 5.79916 21.4028 6.26661 21.6398C6.73405 21.8768 7.24809 22.0001 7.76909 22H10.6426C12.3285 21.9999 13.9454 21.3099 15.1377 20.0818C16.3299 18.8537 16.9998 17.1881 17 15.4512V4.80864C17 4.5879 16.9148 4.37621 16.7633 4.22014C16.6118 4.06406 16.4063 3.97638 16.192 3.97638H15.6318C15.4175 3.97638 15.212 4.06407 15.0605 4.22017C14.9089 4.37627 14.8238 4.58798 14.8238 4.80873L14.8239 4.80864Z" fill="#121212"/>
</svg>
